<svg xmlns="http://www.w3.org/2000/svg" width="81" height="72" fill="none" viewBox="0 0 81 72">
  <path fill="#023240" d="M16.875 21c-1.79 0-3.507.632-4.773 1.757-1.266 1.126-1.977 2.652-1.977 4.243v18c0 1.591.711 3.117 1.977 4.243C13.368 50.368 15.085 51 16.875 51H27v-6H16.875V27H27v-6H16.875Zm20.25 0c-1.79 0-3.507.632-4.773 1.757-1.266 1.126-1.977 2.652-1.977 4.243v18c0 1.591.711 3.117 1.977 4.243C33.618 50.368 35.335 51 37.125 51h6.75c1.79 0 3.507-.632 4.773-1.757 1.266-1.126 1.977-2.652 1.977-4.243V27c0-1.591-.711-3.117-1.977-4.243C47.382 21.632 45.665 21 43.875 21h-6.75Zm0 6h6.75v18h-6.75V27ZM54 31.5V36h10.125v4.5h-5.063c-1.342 0-2.63.474-3.58 1.318C54.534 42.662 54 43.807 54 45v9h15.188v-4.5H59.062V45h5.063c1.343 0 2.63-.474 3.58-1.318.95-.844 1.483-1.989 1.483-3.182V36c0-1.194-.534-2.338-1.483-3.182-.95-.844-2.237-1.318-3.58-1.318H54Z"/>
</svg>
