export <svg width="653" height="596" viewBox="0 0 653 596" fill="none" xmlns="http://www.w3.org/2000/svg">
<g clip-path="url(#clip0_9_2)">
<path opacity="0.18" d="M652.18 360.77C652.178 373.553 650.766 386.297 647.97 398.77C623.09 510.29 490.47 595.4 330.64 595.4C264.7 595.4 203.4 580.91 152.39 556.07C117.19 538.93 86.88 516.86 63.33 491.2C53.3165 481.697 44.5043 471.005 37.09 459.36C-30.54 354.41 -5.18001 167.14 109.24 168.7C122.889 168.972 136.54 168.273 150.09 166.61C182.24 162.46 201.74 152.74 213.55 142.2C216.451 139.623 219.093 136.77 221.44 133.68C237.876 111.832 262.11 97.1705 289.09 92.75C527.75 54.52 614.66 173.5 641.6 273.75C648.918 300.781 652.449 328.698 652.09 356.7C652.16 358.05 652.18 359.41 652.18 360.77V360.77Z" fill="#68E1FD"/>
<path opacity="0.05" d="M171.78 513L44.44 470C44.44 470 -2.41998 411.87 0.190016 314.11L189.69 391.68C189.69 391.68 272.09 368 321.18 365.63C370.27 363.26 587.9 340.41 587.9 340.41C587.9 340.41 629.9 388.56 611.22 403.29C592.54 418.02 458.09 420.5 458.09 420.5L364.59 365.7L285.95 426.46L226.03 483L171.78 513Z" fill="#000405"/>
<path d="M380.54 297.14L378.54 302.22C378.54 302.22 384.54 307.53 380.54 309.81C380.54 309.81 401.36 308.52 380.54 297.14V297.14Z" fill="#3F3D56"/>
<path d="M142.58 461.65L140.16 468.51L160.03 477.8C160.03 477.8 178.47 480.12 184.14 475.26C187.58 472.229 190.093 468.287 191.39 463.89L142.58 461.65Z" fill="#333333"/>
<path d="M194.61 397.29C194.61 397.29 217.99 396.88 224.83 405.37C231.67 413.86 207.09 439 207.09 439L150.4 443L194.61 397.29Z" fill="#68E1FD"/>
<path d="M194.61 397.29C194.61 397.29 217.99 396.88 224.83 405.37C231.67 413.86 207.09 439 207.09 439L150.4 443L194.61 397.29Z" fill="url(#paint0_linear_9_2)"/>
<path d="M193.77 433.74C193.77 433.74 242.89 438.17 251.43 441.32C267.57 447.39 262.77 470.07 255.48 472.49C249.39 474.54 203.07 491.49 188.26 496.92C187.032 497.364 185.681 497.319 184.485 496.797C183.289 496.274 182.339 495.312 181.83 494.11L176.7 482C176.418 481.337 176.279 480.623 176.293 479.903C176.307 479.182 176.472 478.473 176.779 477.822C177.086 477.17 177.527 476.591 178.074 476.122C178.62 475.653 179.26 475.305 179.95 475.1L209.09 466.43C209.09 466.43 165.83 470.79 157.09 468.85C137.74 464.61 118.66 439.85 128.82 418.23C138.98 396.61 193.77 433.74 193.77 433.74V433.74Z" fill="#68E1FD"/>
<path d="M193.77 433.74C193.77 433.74 242.89 438.17 251.43 441.32C267.57 447.39 262.77 470.07 255.48 472.49C249.39 474.54 203.07 491.49 188.26 496.92C187.032 497.364 185.681 497.319 184.485 496.797C183.289 496.274 182.338 495.312 181.83 494.11L176.7 482C176.418 481.337 176.279 480.623 176.293 479.903C176.307 479.182 176.472 478.473 176.779 477.822C177.086 477.17 177.527 476.591 178.074 476.122C178.62 475.653 179.259 475.305 179.95 475.1L209.09 466.43C209.09 466.43 165.83 470.79 157.09 468.85C137.74 464.61 118.66 439.85 128.82 418.23C138.98 396.61 193.77 433.74 193.77 433.74Z" fill="url(#paint1_linear_9_2)"/>
<path d="M322.09 311.51L319.82 320.39L331.46 330.7C331.46 330.7 328.13 330.7 325.46 335.9L324.4 347.27C324.4 347.27 332.22 364.19 353.8 349.4L388.8 380.34L466.43 353L468.09 342.42L322.09 311.51Z" fill="#3F3D56"/>
<path d="M532.55 320L493.93 304.83C491.547 303.495 488.877 302.756 486.146 302.676C483.416 302.596 480.707 303.177 478.25 304.37C476.074 305.398 474.22 307.002 472.889 309.008C471.558 311.013 470.801 313.345 470.7 315.75C469.37 330.35 477.23 397.55 477.23 397.55C480.128 398.672 483.149 399.447 486.23 399.86C488.932 400.399 491.719 400.34 494.396 399.685C497.072 399.03 499.572 397.796 501.72 396.07L502.47 345.52C502.47 345.52 546 372.41 561.53 370.17C578.91 367.67 606.87 353.41 587.98 320.34C569.09 287.27 532.55 320 532.55 320V320Z" fill="#68E1FD"/>
<path d="M532.55 320L493.93 304.83C491.547 303.495 488.877 302.756 486.146 302.676C483.416 302.596 480.707 303.177 478.25 304.37C476.074 305.398 474.22 307.002 472.889 309.008C471.558 311.013 470.801 313.345 470.7 315.75C469.37 330.35 477.23 397.55 477.23 397.55C480.129 398.672 483.149 399.447 486.23 399.86C488.932 400.399 491.719 400.34 494.396 399.685C497.072 399.03 499.572 397.796 501.72 396.07L502.47 345.52C502.47 345.52 546 372.41 561.53 370.17C578.91 367.67 606.87 353.41 587.98 320.34C569.09 287.27 532.55 320 532.55 320V320Z" fill="url(#paint2_linear_9_2)"/>
<path d="M500.55 231.08C500.55 231.08 489.21 267.18 486.15 274.92C483.09 282.66 429.47 289.1 429.47 289.1L431.47 312.27L492.53 304.69L510.89 278.14L500.55 231.08Z" fill="#68E1FD"/>
<path opacity="0.61" d="M500.55 231.08C500.55 231.08 489.21 267.18 486.15 274.92C483.09 282.66 429.47 289.1 429.47 289.1L431.47 312.27L492.53 304.69L510.89 278.14L500.55 231.08Z" fill="url(#paint3_linear_9_2)"/>
<path d="M531.09 219.1L543.52 226C566.61 236.31 575.03 259.26 587.95 320.5C587.95 320.5 577.03 344.92 536.83 328.5C536.83 328.5 509.55 288.64 505.05 273.7C500.55 258.76 489.22 233.05 510.05 223.22C530.88 213.39 531.09 219.1 531.09 219.1V219.1Z" fill="#68E1FD"/>
<path opacity="0.05" d="M557.74 271.68L572.88 328.81C572.88 328.81 557.43 338.23 536.78 328.47C516.13 318.71 523.44 309 516.78 297.14L537.01 286.14L557.74 271.68Z" fill="#000405"/>
<path d="M529.34 216.63C528.539 218.361 527.396 219.912 525.979 221.189C524.562 222.466 522.901 223.443 521.096 224.06C519.292 224.676 517.38 224.921 515.478 224.778C513.576 224.636 511.723 224.109 510.03 223.23C510.03 223.23 498.35 243.6 515.03 241.17C523.87 239.88 531.61 226.72 533.09 220.05L529.34 216.63Z" fill="#333333"/>
<path d="M530.09 200.29C530.09 200.52 529.56 210.57 529.15 217.81C528.85 223.412 526.447 228.694 522.42 232.6C520.086 235.024 517.282 236.947 514.18 238.25C513.432 238.529 512.621 238.595 511.837 238.441C511.054 238.288 510.328 237.92 509.74 237.38C509.15 236.837 508.72 236.142 508.498 235.371C508.276 234.601 508.27 233.784 508.48 233.01C508.88 231.5 509.28 229.76 509.6 227.94C510.26 224.16 510.6 220.07 509.53 217.18C509.499 217.071 509.463 216.965 509.42 216.86C508.82 215.37 509.42 213.74 510.83 212.1C512.77 209.8 516.17 207.47 519.57 205.5C522.976 203.567 526.488 201.827 530.09 200.29V200.29Z" fill="url(#paint4_linear_9_2)"/>
<path d="M511.83 227.17C511.136 227.52 510.4 227.778 509.64 227.94C510.3 224.16 510.64 220.07 509.57 217.18L510.87 212.1L511.87 208.32L519.65 205.5L527.52 202.65C525.56 216.63 518.09 224.24 511.83 227.17V227.17Z" fill="url(#paint5_linear_9_2)"/>
<path d="M509.84 160.47C506.764 160.649 503.758 161.461 501.011 162.856C498.264 164.252 495.835 166.2 493.876 168.578C491.918 170.956 490.472 173.714 489.629 176.678C488.787 179.641 488.566 182.747 488.98 185.8C489.681 194.876 492.012 203.751 495.86 212C503.15 224.44 521.55 214.2 524.46 209.08C527.37 203.96 538.37 180.79 533.76 174.2C530.74 169.72 521.78 160 509.84 160.47V160.47Z" fill="url(#paint6_linear_9_2)"/>
<path d="M490.42 151.67L494.2 153.61C491.945 153.558 489.709 154.043 487.678 155.025C485.647 156.008 483.879 157.459 482.52 159.26C479.065 162.711 477.098 167.377 477.04 172.26L483.47 169.26C483.47 169.26 482.98 177.18 495.14 177.79C507.3 178.4 520.19 178.89 520.19 178.89L516.09 173.17C516.09 173.17 523.64 176.17 524.97 179.01C526.162 183.493 527.018 188.059 527.53 192.67C527.53 192.67 530.53 184.85 531.8 186.56C533.07 188.27 530.48 195.36 528.89 196.91C527.3 198.46 527.57 203.13 527.42 203.51C527.27 203.89 534.98 197.51 535.32 195.32C535.66 193.13 543.32 170.94 538.32 166.32L541.32 166.1C539.524 164.878 537.471 164.084 535.32 163.78C535.32 163.78 515.43 137.49 490.42 151.67V151.67Z" fill="#333333"/>
<path d="M429.4 292C425.551 291.325 421.767 290.321 418.09 289C412.197 287.472 406.168 286.53 400.09 286.19C400.09 286.19 398.92 290.19 402.09 291.01C405.26 291.83 408.89 293.17 408.89 293.17L395.67 294.5L383.43 296.17C383.43 296.17 384.6 300.17 387.89 300.17C388.844 301.891 390.125 303.409 391.66 304.64C393.987 306.745 396.147 309.029 398.12 311.47C399.781 312.782 401.551 313.949 403.41 314.96C404.09 314.96 429.86 311.96 431.41 309.5L429.4 292Z" fill="url(#paint7_linear_9_2)"/>
<path d="M536.9 328.5C536.9 328.5 540.9 348.41 546.83 353.42C546.83 353.42 507.95 383.76 506.14 405.71C503.61 436.05 599.28 389 599.28 389L592.66 372.24L551.18 390.63C551.18 390.63 576.42 373.57 588.96 356.5C598.82 342.96 593.46 330.5 587.96 320.82C587.9 320.5 564.09 340.18 536.9 328.5V328.5Z" fill="#68E1FD"/>
<path d="M536.9 328.5C536.9 328.5 540.9 348.41 546.83 353.42C546.83 353.42 507.95 383.76 506.14 405.71C503.61 436.05 599.28 389 599.28 389L592.66 372.24L551.18 390.63C551.18 390.63 576.42 373.57 588.96 356.5C598.82 342.96 593.46 330.5 587.96 320.82C587.9 320.5 564.09 340.18 536.9 328.5V328.5Z" fill="url(#paint8_linear_9_2)"/>
<path d="M592.55 372.23L599.73 369.76L603.28 379.17L595.35 384.59L592.55 372.23Z" fill="url(#paint9_linear_9_2)"/>
<path d="M486.98 404L486.3 399.83C489.004 400.267 491.768 400.156 494.429 399.505C497.09 398.854 499.593 397.676 501.79 396.04L502.21 402.87C499.953 404.278 497.387 405.117 494.734 405.313C492.081 405.51 489.42 405.06 486.98 404V404Z" fill="url(#paint10_linear_9_2)"/>
<path d="M486.83 402.72L469.83 408.86C469.83 408.86 460.38 406.55 458.49 411.86C457.251 414.585 457.129 417.686 458.15 420.5C458.15 420.5 462.61 424.5 473.72 422.17C484.83 419.84 503 414.17 503 414.17L502.32 403.06C499.879 404.173 497.218 404.72 494.536 404.662C491.854 404.603 489.22 403.939 486.83 402.72V402.72ZM601.09 367.6C601.09 367.6 596.82 369.35 597.31 370.48C597.8 371.61 599.31 369.12 603.13 379.21L600.68 381L605.96 392.37C604.561 393.424 603.45 394.814 602.732 396.412C602.013 398.01 601.71 399.764 601.85 401.51C602.38 404.28 607.29 404.66 611.22 403.3C615.15 401.94 616.85 393.21 616.85 393.21C616.85 393.21 614.28 372.28 608.99 368.79C603.7 365.3 601.09 367.6 601.09 367.6V367.6Z" fill="#333333"/>
<path d="M472.89 346.33L392.63 371.62L355.83 341.06C340.98 356.22 323.15 344.85 325.6 335.97C328.05 327.09 344.5 330.32 344.5 330.32L322.2 311.59L363.92 301.09C364.18 302.56 365.92 309.69 376.05 310.26C387.38 310.91 389.95 301.69 380.54 297.18L406.99 290.32L472.89 346.33Z" fill="#68E1FD"/>
<path opacity="0.05" d="M451.45 336.4C450.902 336.549 450.384 336.793 449.92 337.12C449.493 337.531 449.11 337.987 448.78 338.48C447.3 340.32 444.89 341.05 442.7 341.92C440.225 342.897 437.875 344.166 435.7 345.7C435.373 345.885 435.116 346.173 434.97 346.52C434.64 347.59 436.3 348.12 436.86 349.09C437.025 349.455 437.081 349.86 437.02 350.255C436.96 350.651 436.786 351.021 436.52 351.32C435.981 351.908 435.341 352.396 434.63 352.76C430.821 355.085 427.494 358.12 424.83 361.7C436.928 355.406 449.541 350.154 462.53 346C463.542 345.749 464.492 345.293 465.32 344.66C465.731 344.339 466.033 343.898 466.185 343.399C466.337 342.9 466.332 342.366 466.17 341.87C465.95 341.38 466.72 341.25 466.32 340.87C464.37 339.13 461.09 336.22 458.48 334.09C458.52 334.11 453.5 335.72 451.45 336.4V336.4Z" fill="#000405"/>
<path d="M558.09 236.81C556.665 235.132 554.816 233.866 552.736 233.144C550.657 232.421 548.421 232.269 546.263 232.703C544.104 233.137 542.101 234.141 540.462 235.61C538.822 237.08 537.606 238.962 536.94 241.06C536.22 243.37 535.46 246.14 534.71 249.55C530.71 267.98 512.6 308.06 512.6 308.06L460.01 336.47L474.4 354.9L535.95 324.56C535.95 324.56 563.23 264.3 562.74 252.81C562.92 247.119 561.292 241.518 558.09 236.81V236.81Z" fill="#68E1FD"/>
<path opacity="0.61" d="M558.09 236.81C556.665 235.132 554.816 233.866 552.736 233.144C550.657 232.421 548.421 232.269 546.263 232.703C544.104 233.137 542.101 234.141 540.462 235.61C538.822 237.08 537.606 238.962 536.94 241.06C536.22 243.37 535.46 246.14 534.71 249.55C530.71 267.98 512.6 308.06 512.6 308.06L460.01 336.47L474.4 354.9L535.95 324.56C535.95 324.56 563.23 264.3 562.74 252.81C562.92 247.119 561.292 241.518 558.09 236.81V236.81Z" fill="url(#paint11_linear_9_2)"/>
<path d="M464.5 339.05C460.7 340.072 456.819 340.768 452.9 341.13C446.907 342.217 441.035 343.892 435.37 346.13C435.37 346.13 435.97 350.23 439.15 349.66C442.33 349.09 446.21 348.83 446.21 348.83L434.88 355.62L424.45 362.29C424.45 362.29 427.17 365.44 430.15 364.03C431.748 365.195 433.559 366.034 435.48 366.5C438.46 367.427 441.365 368.581 444.17 369.95C446.229 370.446 448.327 370.763 450.44 370.9C451.05 370.63 473.38 356.98 473.53 354.14L464.5 339.05Z" fill="url(#paint12_linear_9_2)"/>
<path d="M288.76 331.73L307.96 339.31V350.69C307.96 350.69 284.96 351.18 284.96 361.15C284.96 371.12 306.65 378.94 321.19 365.63L354.29 384.63L353.09 394.37L252.45 430.78L194.79 360.43V349.06L288.76 331.73Z" fill="#3F3D56"/>
<path d="M288.76 320.5L307.96 339.27C307.96 339.27 284.96 339.77 284.96 349.74C284.96 359.71 306.65 367.53 321.19 354.21L354.29 384.55L253.51 420.09L194.79 349.25L234.35 337.15C234.35 337.15 221.77 328.69 233.86 323.04C236.094 321.944 238.518 321.288 241 321.11C250.49 320.73 252 325.62 253.25 330.97V331.39L288.76 320.5Z" fill="#68E1FD"/>
<path opacity="0.05" d="M210.78 344.36C210.78 344.36 226.78 379.14 234.39 384.91C238.63 388.13 267.94 397.69 292.83 399.04C295.16 399.17 302.44 392.42 305.88 393.31C310.88 394.62 304.97 399.11 306.13 399.17C321.13 399.88 329.44 393.31 329.44 393.31L250.44 421.83L197.51 345.93L210.78 344.36Z" fill="#000405"/>
<path d="M287.86 406.62C290.54 403.114 293.606 399.921 297 397.1C299.776 395.443 302.763 394.168 305.88 393.31C305.88 393.31 307.28 397.56 304.88 398.36C302.48 399.16 301.1 403.36 301.1 403.36C301.1 403.36 318.56 406.7 320.67 405.67C322.78 404.64 322.98 407.91 318.86 408.52C314.74 409.13 314.86 415.04 312.06 415.52C309.26 416 305.11 418.67 300.99 419.66C296.215 420.073 291.407 419.851 286.69 419L287.86 406.62Z" fill="url(#paint13_linear_9_2)"/>
<path d="M207.75 356.15C210.014 343.836 208.51 331.126 203.434 319.681C198.358 308.235 189.947 298.588 179.3 292C175.509 289.403 171.163 287.728 166.61 287.11C148.32 286.05 128.82 418.21 128.82 418.21C128.82 418.21 137.63 443.81 164.3 446.27C188.94 448.55 193.74 433.72 193.74 433.72L207.75 356.15Z" fill="#68E1FD"/>
<path opacity="0.61" d="M207.75 356.15C210.014 343.836 208.51 331.126 203.434 319.681C198.358 308.235 189.947 298.588 179.3 292C175.509 289.403 171.163 287.728 166.61 287.11C148.32 286.05 128.82 418.21 128.82 418.21C128.82 418.21 137.63 443.81 164.3 446.27C188.94 448.55 193.74 433.72 193.74 433.72L207.75 356.15Z" fill="url(#paint14_linear_9_2)"/>
<path d="M166.61 287.09C166.61 287.09 169.29 267.15 170.39 254.18C171.49 241.21 175.75 223.84 197.52 226.11C219.29 228.38 219.28 261.31 213.23 275.11C207.18 288.91 199.14 288.46 199.14 288.46C199.14 288.46 188.3 286.07 188.67 299.12L166.61 287.09Z" fill="url(#paint15_linear_9_2)"/>
<path d="M174.84 223.31C171.668 226.351 169.371 230.188 168.19 234.42C167.21 237.853 166.54 241.367 166.19 244.92L168.42 242.5C168.294 248.588 167.826 254.664 167.02 260.7C166.197 266.327 165.862 272.015 166.02 277.7L170.07 277.51L175.07 283.77L180.7 279.97L184.93 277.74L188.71 268.44C187.789 267.765 187.114 266.808 186.788 265.714C186.461 264.62 186.5 263.449 186.9 262.38C188.3 258.59 191.73 257.71 192.53 259.95C193.142 262.74 193.477 265.584 193.53 268.44L199.53 251.44C199.53 251.44 203.31 246.16 206.6 249.81C208.571 252.01 211.064 253.678 213.85 254.66L211.85 248.97L217.29 250.37L216.87 243.89L220.92 246.73C220.92 246.73 222.73 236.23 219.29 231.56C215.85 226.89 202.28 208.33 174.84 223.31V223.31Z" fill="#333333"/>
<path d="M288.42 403.25L243.88 398.43C237.86 397.274 232.354 394.259 228.137 389.811C223.92 385.362 221.203 379.703 220.37 373.63L203.9 323.38C202.905 320.227 201.046 317.415 198.534 315.264C196.023 313.113 192.959 311.709 189.69 311.21C187.111 310.824 184.477 311.099 182.033 312.009C179.59 312.919 177.417 314.434 175.718 316.412C174.02 318.39 172.851 320.767 172.321 323.32C171.792 325.874 171.918 328.519 172.69 331.01L189.69 391.68C190.492 398.341 193.557 404.525 198.371 409.197C203.185 413.87 209.458 416.748 216.14 417.35L285.97 426.46L288.42 403.25Z" fill="#68E1FD"/>
<path opacity="0.61" d="M288.42 403.25L243.88 398.43C237.86 397.274 232.354 394.259 228.137 389.811C223.92 385.362 221.203 379.703 220.37 373.63L203.9 323.38C202.905 320.227 201.046 317.415 198.534 315.264C196.023 313.113 192.959 311.709 189.69 311.21C187.111 310.824 184.477 311.099 182.033 312.009C179.59 312.919 177.417 314.434 175.718 316.412C174.02 318.39 172.851 320.767 172.321 323.32C171.792 325.874 171.918 328.519 172.69 331.01L189.69 391.68C190.492 398.341 193.557 404.525 198.371 409.197C203.185 413.87 209.458 416.748 216.14 417.35L285.97 426.46L288.42 403.25Z" fill="url(#paint16_linear_9_2)"/>
<path d="M178.47 477L165.36 480L170.61 495.17L184.33 492C184.33 492 187.96 480.27 178.47 477Z" fill="url(#paint17_linear_9_2)"/>
<path d="M160.03 477.8C160.03 477.8 168.61 475.98 170.03 478.9C171.45 481.82 166.89 481.63 167.8 485.77C168.562 488.919 169.507 492.021 170.63 495.06L174.86 494.11L175.73 499.11C175.915 499.971 176.393 500.74 177.083 501.287C177.772 501.834 178.63 502.125 179.51 502.11C189.41 502.68 188.09 511.66 184.61 512L171.8 512.95L165.04 507.3C164.23 506.737 163.59 505.962 163.19 505.06C160.68 500.21 153.09 482.16 160.03 477.8V477.8Z" fill="#333333"/>
<path opacity="0.4" d="M368.41 168.55C367.755 169.497 367.186 170.501 366.71 171.55C363.84 177.69 354.13 199.65 352.71 218.68C352.428 223.311 350.455 227.677 347.167 230.949C343.878 234.221 339.502 236.171 334.87 236.43L317.53 237.43L311.86 237.73C307.305 237.999 302.807 236.612 299.195 233.823C295.584 231.035 293.102 227.034 292.21 222.56C288.66 205.04 281.1 178.27 266.41 166.44C266.41 166.44 201.64 107.13 244.83 40.99C247.733 36.5212 250.98 32.2851 254.54 28.32C299.87 -21.86 374.69 0.99995 392.67 47.61C410.65 94.22 375.56 158.5 368.41 168.55Z" fill="#68E1FD"/>
<path d="M355.19 244.62C353.68 248.41 351.94 250.23 353.45 252.74C354.96 255.25 359.31 262 337.24 265C332.668 265.631 328.064 265.999 323.45 266.1H316.23L312 265.91C307.17 265.61 303.27 265.12 300.67 264.7C299.257 264.493 297.903 263.991 296.697 263.226C295.491 262.461 294.46 261.45 293.67 260.26C293.283 259.365 293.153 258.381 293.295 257.416C293.436 256.452 293.843 255.546 294.47 254.8C294.83 254.464 295.1 254.043 295.254 253.575C295.408 253.108 295.441 252.608 295.35 252.124C295.259 251.64 295.047 251.187 294.735 250.807C294.422 250.427 294.018 250.132 293.56 249.95C292.367 248.828 291.659 247.284 291.588 245.647C291.517 244.011 292.088 242.411 293.18 241.19C293.724 240.633 294.173 239.991 294.51 239.29C294.982 238.209 295.151 237.019 294.998 235.849C294.844 234.679 294.375 233.573 293.64 232.65L293.03 231.9C292.188 230.762 291.573 229.471 291.22 228.1C290.852 227.158 290.743 226.135 290.903 225.136C291.063 224.138 291.486 223.2 292.13 222.42C293.022 226.892 295.502 230.89 299.112 233.676C302.722 236.463 307.218 237.849 311.77 237.58L317.44 237.24C317.598 237.018 317.726 236.776 317.82 236.52C318.82 234.1 316.57 231.29 317.71 227.52L321.97 227.33C332.444 226.704 342.788 224.687 352.73 221.33C353.816 222.229 354.559 223.474 354.834 224.857C355.109 226.239 354.899 227.674 354.24 228.92C353.848 229.76 353.582 230.653 353.45 231.57C353.19 233.492 353.518 235.448 354.39 237.18C354.489 237.391 354.603 237.595 354.73 237.79C355.336 238.813 355.693 239.964 355.773 241.15C355.852 242.336 355.653 243.525 355.19 244.62V244.62Z" fill="#68E1FD"/>
<path d="M292.17 222.4C311.952 217.273 332.665 216.896 352.62 221.3C352.62 221.3 319.86 234.72 292.17 222.4Z" fill="#333333"/>
<path d="M321.18 265.74C319.534 266.065 317.854 266.179 316.18 266.08L311.94 265.89C307.11 265.59 303.22 265.1 300.61 264.68C299.197 264.473 297.843 263.971 296.637 263.206C295.43 262.441 294.399 261.43 293.61 260.24C293.221 259.346 293.089 258.362 293.228 257.398C293.368 256.433 293.774 255.527 294.4 254.78C294.76 254.443 295.029 254.021 295.182 253.552C295.336 253.084 295.37 252.585 295.28 252.1C295.189 251.616 294.978 251.164 294.665 250.784C294.352 250.405 293.947 250.111 293.49 249.93C292.296 248.808 291.588 247.263 291.519 245.625C291.45 243.988 292.025 242.389 293.12 241.17C294.234 240.054 294.897 238.566 294.98 236.991C295.063 235.417 294.561 233.867 293.57 232.64C292.458 231.329 291.658 229.784 291.23 228.12C290.863 227.178 290.753 226.156 290.911 225.158C291.069 224.16 291.49 223.222 292.13 222.44C301.608 226.07 311.73 227.72 321.87 227.29L322.36 227.52C322.36 227.52 318.58 228.96 319.56 232.26C320.54 235.56 321.98 241.51 318.73 245.38C315.48 249.25 321.73 250.31 320.55 254.67V255.09C320.072 256.39 319.704 257.728 319.45 259.09C318.77 262.52 319.09 265.44 321.18 265.74V265.74Z" fill="url(#paint18_linear_9_2)"/>
<path opacity="0.49" d="M321.94 227.25C311.789 227.69 301.656 226.039 292.17 222.4C288.65 204.99 281.09 178.22 266.4 166.4C266.4 166.4 201.63 107.09 244.82 40.9501C247.723 36.4813 250.97 32.2452 254.53 28.2801L260.35 27.7501C260.35 27.7501 299.09 7.34006 315.52 29.6801C331.95 52.0201 296.09 77.2701 294.21 118.07C292.33 158.87 339.02 166.42 321.94 227.25Z" fill="white"/>
<path d="M350.09 255.12C347.29 256.94 337.24 260.36 319.33 259.12C310.935 258.452 302.623 256.979 294.51 254.72C294.87 254.384 295.14 253.963 295.294 253.495C295.448 253.028 295.481 252.529 295.39 252.045C295.299 251.561 295.088 251.107 294.775 250.727C294.462 250.347 294.058 250.052 293.6 249.87C302.297 252.853 311.407 254.452 320.6 254.61C330.92 254.899 341.224 253.621 351.16 250.82C351.16 250.82 354.28 252.39 350.09 255.12V255.12Z" fill="url(#paint19_linear_9_2)"/>
<path d="M354.36 237.22C351 240.03 338.3 245.22 319.94 243.44C311.318 243.127 302.772 241.713 294.51 239.23C294.983 238.15 295.151 236.962 294.998 235.794C294.845 234.625 294.375 233.521 293.64 232.6L293.03 231.84C294.24 232.3 296.28 232.94 299.03 233.66C305.227 235.228 311.552 236.232 317.93 236.66H320.87C331.974 237.108 343.057 235.354 353.48 231.5C353.176 233.452 353.483 235.45 354.36 237.22V237.22Z" fill="url(#paint20_linear_9_2)"/>
<path d="M228.61 328.81L228.84 338.81L234.39 337.1C234.39 337.1 228.61 333.09 228.61 328.81Z" fill="#3F3D56"/>
<path d="M350.26 126.13L349.05 125.31C350.873 119.795 351.517 113.959 350.94 108.18C349.5 95.94 340.86 88.47 326.64 87.18C304.84 85.11 296.21 96.36 293.01 103.24C283.77 122.47 292.13 153.61 305.45 167.58C321.87 184.72 315.53 217.04 313.21 226.58C313.135 226.814 313.084 227.055 313.06 227.3V227.94L316.41 229.08L316.65 228.14C318.635 220.503 319.788 212.675 320.09 204.79C320.68 187.79 316.61 174.04 308.28 165.04C295.98 152.15 287.99 122.39 296.48 104.78C301.63 94.23 312.02 89.37 326.55 90.72C342.36 92.22 346.73 101.29 347.61 108.6C348.055 113.61 347.494 118.659 345.96 123.45C342.43 121.669 338.377 121.214 334.54 122.17C327.05 124.23 322.32 131.99 319.67 138.11C319.007 139.631 318.803 141.313 319.082 142.949C319.361 144.585 320.111 146.104 321.24 147.32C322.343 148.509 323.765 149.355 325.336 149.757C326.907 150.16 328.561 150.102 330.1 149.59C336.85 147.2 343.89 138.92 347.85 128.82L348.24 129.09C359.24 136.83 351.39 148.76 342.36 162.59C335.93 172.28 327.95 184.34 327.09 196.22C326.09 206.86 326.55 215.27 327.27 225.98L327.32 226.83H330.92L330.87 225.83C330.17 215.14 329.75 206.83 330.69 196.49C331.46 185.61 338.81 174.42 345.29 164.49L345.58 164.04C354.99 149.61 363.87 135.91 350.26 126.13V126.13ZM328.82 146.13C327.95 146.428 327.012 146.463 326.122 146.23C325.233 145.997 324.432 145.506 323.82 144.82C323.161 144.119 322.725 143.239 322.565 142.291C322.404 141.343 322.528 140.368 322.92 139.49C324.82 135.08 328.98 127.39 335.45 125.59C336.375 125.337 337.331 125.209 338.29 125.21C340.498 125.285 342.663 125.845 344.63 126.85C340.86 136.38 334.45 144.25 328.82 146.15V146.13ZM346.95 126.04L347.11 126.15L346.95 126.04Z" fill="white"/>
</g>
<defs>
<linearGradient id="paint0_linear_9_2" x1="150.4" y1="420.16" x2="226.03" y2="420.16" gradientUnits="userSpaceOnUse">
<stop stop-color="#68E1FD" stop-opacity="0"/>
<stop offset="0.02" stop-color="#66DAF6" stop-opacity="0.04"/>
<stop offset="0.18" stop-color="#58A1BC" stop-opacity="0.39"/>
<stop offset="0.35" stop-color="#4D758F" stop-opacity="0.66"/>
<stop offset="0.53" stop-color="#45566F" stop-opacity="0.85"/>
<stop offset="0.73" stop-color="#40435C" stop-opacity="0.96"/>
<stop offset="0.99" stop-color="#3F3D56"/>
</linearGradient>
<linearGradient id="paint1_linear_9_2" x1="255.71" y1="372.95" x2="166.64" y2="474.74" gradientUnits="userSpaceOnUse">
<stop offset="0.11" stop-color="#68E1FD" stop-opacity="0"/>
<stop offset="0.13" stop-color="#66DAF6" stop-opacity="0.04"/>
<stop offset="0.27" stop-color="#58A1BC" stop-opacity="0.39"/>
<stop offset="0.42" stop-color="#4D758F" stop-opacity="0.66"/>
<stop offset="0.58" stop-color="#45566F" stop-opacity="0.85"/>
<stop offset="0.76" stop-color="#40435C" stop-opacity="0.96"/>
<stop offset="0.99" stop-color="#3F3D56"/>
</linearGradient>
<linearGradient id="paint2_linear_9_2" x1="415.82" y1="327.15" x2="559.43" y2="360.26" gradientUnits="userSpaceOnUse">
<stop stop-color="#68E1FD" stop-opacity="0"/>
<stop offset="0.02" stop-color="#66DAF6" stop-opacity="0.04"/>
<stop offset="0.18" stop-color="#58A1BC" stop-opacity="0.39"/>
<stop offset="0.35" stop-color="#4D758F" stop-opacity="0.66"/>
<stop offset="0.53" stop-color="#45566F" stop-opacity="0.85"/>
<stop offset="0.73" stop-color="#40435C" stop-opacity="0.96"/>
<stop offset="0.99" stop-color="#3F3D56"/>
</linearGradient>
<linearGradient id="paint3_linear_9_2" x1="532.09" y1="310.15" x2="471.74" y2="275.02" gradientUnits="userSpaceOnUse">
<stop offset="0.36" stop-color="#00272E"/>
<stop offset="1" stop-color="#69B9EB" stop-opacity="0"/>
</linearGradient>
<linearGradient id="paint4_linear_9_2" x1="508.37" y1="219.41" x2="530.13" y2="219.41" gradientUnits="userSpaceOnUse">
<stop stop-color="#ECC4D7"/>
<stop offset="0.42" stop-color="#EFD4D1"/>
<stop offset="1" stop-color="#F2EAC9"/>
</linearGradient>
<linearGradient id="paint5_linear_9_2" x1="522.66" y1="203.63" x2="484.29" y2="267.47" gradientUnits="userSpaceOnUse">
<stop stop-color="#ECC4D7"/>
<stop offset="0.42" stop-color="#EFD4D1"/>
<stop offset="1" stop-color="#F2EAC9"/>
</linearGradient>
<linearGradient id="paint6_linear_9_2" x1="488.78" y1="189.21" x2="534.87" y2="189.21" gradientUnits="userSpaceOnUse">
<stop stop-color="#ECC4D7"/>
<stop offset="0.42" stop-color="#EFD4D1"/>
<stop offset="1" stop-color="#F2EAC9"/>
</linearGradient>
<linearGradient id="paint7_linear_9_2" x1="383.38" y1="300.55" x2="431.33" y2="300.55" gradientUnits="userSpaceOnUse">
<stop stop-color="#ECC4D7"/>
<stop offset="0.42" stop-color="#EFD4D1"/>
<stop offset="1" stop-color="#F2EAC9"/>
</linearGradient>
<linearGradient id="paint8_linear_9_2" x1="507.44" y1="347.58" x2="599.1" y2="391.37" gradientUnits="userSpaceOnUse">
<stop stop-color="#68E1FD" stop-opacity="0"/>
<stop offset="0.02" stop-color="#66DAF6" stop-opacity="0.04"/>
<stop offset="0.18" stop-color="#58A1BC" stop-opacity="0.39"/>
<stop offset="0.35" stop-color="#4D758F" stop-opacity="0.66"/>
<stop offset="0.53" stop-color="#45566F" stop-opacity="0.85"/>
<stop offset="0.73" stop-color="#40435C" stop-opacity="0.96"/>
<stop offset="0.99" stop-color="#3F3D56"/>
</linearGradient>
<linearGradient id="paint9_linear_9_2" x1="592.55" y1="377.18" x2="603.28" y2="377.18" gradientUnits="userSpaceOnUse">
<stop stop-color="#ECC4D7"/>
<stop offset="0.42" stop-color="#EFD4D1"/>
<stop offset="1" stop-color="#F2EAC9"/>
</linearGradient>
<linearGradient id="paint10_linear_9_2" x1="486.3" y1="400.74" x2="502.21" y2="400.74" gradientUnits="userSpaceOnUse">
<stop stop-color="#ECC4D7"/>
<stop offset="0.42" stop-color="#EFD4D1"/>
<stop offset="1" stop-color="#F2EAC9"/>
</linearGradient>
<linearGradient id="paint11_linear_9_2" x1="603.78" y1="340.63" x2="493.02" y2="283.34" gradientUnits="userSpaceOnUse">
<stop offset="0.36" stop-color="#00272E"/>
<stop offset="1" stop-color="#69B9EB" stop-opacity="0"/>
</linearGradient>
<linearGradient id="paint12_linear_9_2" x1="424.45" y1="354.99" x2="473.53" y2="354.99" gradientUnits="userSpaceOnUse">
<stop stop-color="#ECC4D7"/>
<stop offset="0.42" stop-color="#EFD4D1"/>
<stop offset="1" stop-color="#F2EAC9"/>
</linearGradient>
<linearGradient id="paint13_linear_9_2" x1="286.69" y1="406.61" x2="322.13" y2="406.61" gradientUnits="userSpaceOnUse">
<stop stop-color="#ECC4D7"/>
<stop offset="0.42" stop-color="#EFD4D1"/>
<stop offset="1" stop-color="#F2EAC9"/>
</linearGradient>
<linearGradient id="paint14_linear_9_2" x1="102.51" y1="359.1" x2="185.01" y2="369.03" gradientUnits="userSpaceOnUse">
<stop offset="0.36" stop-color="#00272E"/>
<stop offset="1" stop-color="#69B9EB" stop-opacity="0"/>
</linearGradient>
<linearGradient id="paint15_linear_9_2" x1="166.61" y1="262.49" x2="216.69" y2="262.49" gradientUnits="userSpaceOnUse">
<stop stop-color="#ECC4D7"/>
<stop offset="0.42" stop-color="#EFD4D1"/>
<stop offset="1" stop-color="#F2EAC9"/>
</linearGradient>
<linearGradient id="paint16_linear_9_2" x1="139.01" y1="435.38" x2="242.39" y2="363.07" gradientUnits="userSpaceOnUse">
<stop offset="0.36" stop-color="#00272E"/>
<stop offset="1" stop-color="#69B9EB" stop-opacity="0"/>
</linearGradient>
<linearGradient id="paint17_linear_9_2" x1="165.36" y1="486.11" x2="185.01" y2="486.11" gradientUnits="userSpaceOnUse">
<stop stop-color="#ECC4D7"/>
<stop offset="0.42" stop-color="#EFD4D1"/>
<stop offset="1" stop-color="#F2EAC9"/>
</linearGradient>
<linearGradient id="paint18_linear_9_2" x1="327.24" y1="245.1" x2="266.8" y2="242.9" gradientUnits="userSpaceOnUse">
<stop stop-color="#68E1FD" stop-opacity="0"/>
<stop offset="0.02" stop-color="#66DAF6" stop-opacity="0.04"/>
<stop offset="0.18" stop-color="#58A1BC" stop-opacity="0.39"/>
<stop offset="0.35" stop-color="#4D758F" stop-opacity="0.66"/>
<stop offset="0.53" stop-color="#45566F" stop-opacity="0.85"/>
<stop offset="0.73" stop-color="#40435C" stop-opacity="0.96"/>
<stop offset="0.99" stop-color="#3F3D56"/>
</linearGradient>
<linearGradient id="paint19_linear_9_2" x1="320.69" y1="217.65" x2="327.48" y2="317.47" gradientUnits="userSpaceOnUse">
<stop stop-color="#68E1FD" stop-opacity="0"/>
<stop offset="0.02" stop-color="#66DAF6" stop-opacity="0.04"/>
<stop offset="0.18" stop-color="#58A1BC" stop-opacity="0.39"/>
<stop offset="0.35" stop-color="#4D758F" stop-opacity="0.66"/>
<stop offset="0.53" stop-color="#45566F" stop-opacity="0.85"/>
<stop offset="0.73" stop-color="#40435C" stop-opacity="0.96"/>
<stop offset="0.99" stop-color="#3F3D56"/>
</linearGradient>
<linearGradient id="paint20_linear_9_2" x1="322.54" y1="217.53" x2="329.33" y2="317.34" gradientUnits="userSpaceOnUse">
<stop stop-color="#68E1FD" stop-opacity="0"/>
<stop offset="0.02" stop-color="#66DAF6" stop-opacity="0.04"/>
<stop offset="0.18" stop-color="#58A1BC" stop-opacity="0.39"/>
<stop offset="0.35" stop-color="#4D758F" stop-opacity="0.66"/>
<stop offset="0.53" stop-color="#45566F" stop-opacity="0.85"/>
<stop offset="0.73" stop-color="#40435C" stop-opacity="0.96"/>
<stop offset="0.99" stop-color="#3F3D56"/>
</linearGradient>
<clipPath id="clip0_9_2">
<rect width="652.17" height="595.4" fill="white"/>
</clipPath>
</defs>
</svg>
